<mxfile host="app.diagrams.net" modified="2024-03-04T00:11:51.209Z" agent="Mozilla/5.0 (Macintosh; Intel Mac OS X 10_15_7) AppleWebKit/537.36 (KHTML, like Gecko) Chrome/122.0.0.0 Safari/537.36" etag="R5fNESuqjtm0GnUXa7xp" version="21.6.6" type="github">
  <diagram name="Page-1" id="BUqAdPhRB4Lpo9XYMQPq">
    <mxGraphModel dx="954" dy="499" grid="1" gridSize="10" guides="1" tooltips="1" connect="1" arrows="1" fold="1" page="1" pageScale="1" pageWidth="850" pageHeight="1100" math="0" shadow="0">
      <root>
        <mxCell id="0" />
        <mxCell id="1" parent="0" />
        <mxCell id="0IamSGhX4x1fuv4fyuVd-6" value="" style="rounded=1;whiteSpace=wrap;html=1;" vertex="1" parent="1">
          <mxGeometry x="27.5" y="190" width="240" height="251.62" as="geometry" />
        </mxCell>
        <mxCell id="0IamSGhX4x1fuv4fyuVd-4" value="" style="sketch=0;outlineConnect=0;fontColor=#232F3E;gradientColor=none;fillColor=#232F3D;strokeColor=none;dashed=0;verticalLabelPosition=bottom;verticalAlign=top;align=center;html=1;fontSize=12;fontStyle=0;aspect=fixed;pointerEvents=1;shape=mxgraph.aws4.traditional_server;" vertex="1" parent="1">
          <mxGeometry x="60" y="310" width="45" height="78" as="geometry" />
        </mxCell>
        <mxCell id="0IamSGhX4x1fuv4fyuVd-5" value="" style="sketch=0;outlineConnect=0;fontColor=#232F3E;gradientColor=none;fillColor=#232F3D;strokeColor=none;dashed=0;verticalLabelPosition=bottom;verticalAlign=top;align=center;html=1;fontSize=12;fontStyle=0;aspect=fixed;pointerEvents=1;shape=mxgraph.aws4.traditional_server;" vertex="1" parent="1">
          <mxGeometry x="185.88" y="310" width="45" height="78" as="geometry" />
        </mxCell>
        <mxCell id="0IamSGhX4x1fuv4fyuVd-7" value="" style="group" vertex="1" connectable="0" parent="1">
          <mxGeometry x="120" y="205.13" width="55" height="33.25" as="geometry" />
        </mxCell>
        <mxCell id="0IamSGhX4x1fuv4fyuVd-3" value="" style="rounded=1;whiteSpace=wrap;html=1;" vertex="1" parent="0IamSGhX4x1fuv4fyuVd-7">
          <mxGeometry width="55" height="33.25" as="geometry" />
        </mxCell>
        <mxCell id="0IamSGhX4x1fuv4fyuVd-2" value="" style="sketch=0;aspect=fixed;pointerEvents=1;shadow=0;dashed=0;html=1;strokeColor=none;labelPosition=center;verticalLabelPosition=bottom;verticalAlign=top;align=center;fillColor=#000000;shape=mxgraph.azure.load_balancer_generic;direction=north;strokeWidth=1;" vertex="1" parent="0IamSGhX4x1fuv4fyuVd-7">
          <mxGeometry x="11.620000000000005" y="4.8700000000000045" width="31.76" height="23.5" as="geometry" />
        </mxCell>
        <mxCell id="0IamSGhX4x1fuv4fyuVd-10" value="" style="endArrow=classic;html=1;rounded=0;exitX=0;exitY=1;exitDx=0;exitDy=0;" edge="1" parent="1" source="0IamSGhX4x1fuv4fyuVd-3" target="0IamSGhX4x1fuv4fyuVd-4">
          <mxGeometry width="50" height="50" relative="1" as="geometry">
            <mxPoint x="400" y="290" as="sourcePoint" />
            <mxPoint x="450" y="240" as="targetPoint" />
          </mxGeometry>
        </mxCell>
        <mxCell id="0IamSGhX4x1fuv4fyuVd-11" value="" style="endArrow=classic;html=1;rounded=0;exitX=0.873;exitY=1.019;exitDx=0;exitDy=0;exitPerimeter=0;" edge="1" parent="1" source="0IamSGhX4x1fuv4fyuVd-3" target="0IamSGhX4x1fuv4fyuVd-5">
          <mxGeometry width="50" height="50" relative="1" as="geometry">
            <mxPoint x="400" y="290" as="sourcePoint" />
            <mxPoint x="450" y="240" as="targetPoint" />
          </mxGeometry>
        </mxCell>
        <mxCell id="0IamSGhX4x1fuv4fyuVd-12" value="" style="endArrow=classic;html=1;rounded=0;" edge="1" parent="1" target="0IamSGhX4x1fuv4fyuVd-6">
          <mxGeometry width="50" height="50" relative="1" as="geometry">
            <mxPoint x="148" y="150" as="sourcePoint" />
            <mxPoint x="450" y="240" as="targetPoint" />
          </mxGeometry>
        </mxCell>
        <mxCell id="0IamSGhX4x1fuv4fyuVd-13" value="Load Balancer" style="text;html=1;strokeColor=none;fillColor=none;align=center;verticalAlign=middle;whiteSpace=wrap;rounded=0;" vertex="1" parent="1">
          <mxGeometry x="115" y="248" width="60" height="30" as="geometry" />
        </mxCell>
        <mxCell id="0IamSGhX4x1fuv4fyuVd-14" value="Servers" style="text;html=1;strokeColor=none;fillColor=none;align=center;verticalAlign=middle;whiteSpace=wrap;rounded=0;" vertex="1" parent="1">
          <mxGeometry x="115" y="334" width="60" height="30" as="geometry" />
        </mxCell>
        <mxCell id="0IamSGhX4x1fuv4fyuVd-15" value="Private Network" style="text;html=1;strokeColor=none;fillColor=none;align=center;verticalAlign=middle;whiteSpace=wrap;rounded=0;" vertex="1" parent="1">
          <mxGeometry x="99" y="417" width="90" height="30" as="geometry" />
        </mxCell>
        <mxCell id="0IamSGhX4x1fuv4fyuVd-16" value="" style="rounded=1;whiteSpace=wrap;html=1;" vertex="1" parent="1">
          <mxGeometry x="290" y="190" width="240" height="251.62" as="geometry" />
        </mxCell>
        <mxCell id="0IamSGhX4x1fuv4fyuVd-18" value="" style="sketch=0;outlineConnect=0;fontColor=#232F3E;gradientColor=none;fillColor=#232F3D;strokeColor=none;dashed=0;verticalLabelPosition=bottom;verticalAlign=top;align=center;html=1;fontSize=12;fontStyle=0;aspect=fixed;pointerEvents=1;shape=mxgraph.aws4.traditional_server;" vertex="1" parent="1">
          <mxGeometry x="322.5" y="310" width="45" height="78" as="geometry" />
        </mxCell>
        <mxCell id="0IamSGhX4x1fuv4fyuVd-19" value="" style="sketch=0;outlineConnect=0;fontColor=#232F3E;gradientColor=none;fillColor=#232F3D;strokeColor=none;dashed=0;verticalLabelPosition=bottom;verticalAlign=top;align=center;html=1;fontSize=12;fontStyle=0;aspect=fixed;pointerEvents=1;shape=mxgraph.aws4.traditional_server;" vertex="1" parent="1">
          <mxGeometry x="448.38" y="310" width="45" height="78" as="geometry" />
        </mxCell>
        <mxCell id="0IamSGhX4x1fuv4fyuVd-23" value="" style="endArrow=classic;html=1;rounded=0;" edge="1" parent="1" source="0IamSGhX4x1fuv4fyuVd-56" target="0IamSGhX4x1fuv4fyuVd-18">
          <mxGeometry width="50" height="50" relative="1" as="geometry">
            <mxPoint x="382.5" y="238.38" as="sourcePoint" />
            <mxPoint x="712.5" y="240" as="targetPoint" />
          </mxGeometry>
        </mxCell>
        <mxCell id="0IamSGhX4x1fuv4fyuVd-24" value="" style="endArrow=classic;html=1;rounded=0;" edge="1" parent="1" source="0IamSGhX4x1fuv4fyuVd-56" target="0IamSGhX4x1fuv4fyuVd-19">
          <mxGeometry width="50" height="50" relative="1" as="geometry">
            <mxPoint x="430.5150000000001" y="239.01175" as="sourcePoint" />
            <mxPoint x="712.5" y="240" as="targetPoint" />
          </mxGeometry>
        </mxCell>
        <mxCell id="0IamSGhX4x1fuv4fyuVd-25" value="" style="endArrow=classic;html=1;rounded=0;exitX=0.5;exitY=1;exitDx=0;exitDy=0;" edge="1" parent="1" target="0IamSGhX4x1fuv4fyuVd-16">
          <mxGeometry width="50" height="50" relative="1" as="geometry">
            <mxPoint x="410" y="140" as="sourcePoint" />
            <mxPoint x="712.5" y="240" as="targetPoint" />
          </mxGeometry>
        </mxCell>
        <mxCell id="0IamSGhX4x1fuv4fyuVd-26" value="Reverse Proxy" style="text;html=1;strokeColor=none;fillColor=none;align=center;verticalAlign=middle;whiteSpace=wrap;rounded=0;" vertex="1" parent="1">
          <mxGeometry x="380" y="280" width="60" height="30" as="geometry" />
        </mxCell>
        <mxCell id="0IamSGhX4x1fuv4fyuVd-27" value="Servers" style="text;html=1;strokeColor=none;fillColor=none;align=center;verticalAlign=middle;whiteSpace=wrap;rounded=0;" vertex="1" parent="1">
          <mxGeometry x="377.5" y="334" width="60" height="30" as="geometry" />
        </mxCell>
        <mxCell id="0IamSGhX4x1fuv4fyuVd-28" value="Private Network" style="text;html=1;strokeColor=none;fillColor=none;align=center;verticalAlign=middle;whiteSpace=wrap;rounded=0;" vertex="1" parent="1">
          <mxGeometry x="361.5" y="417" width="90" height="30" as="geometry" />
        </mxCell>
        <mxCell id="0IamSGhX4x1fuv4fyuVd-42" value="" style="rounded=1;whiteSpace=wrap;html=1;" vertex="1" parent="1">
          <mxGeometry x="820" y="221.62" width="240" height="220" as="geometry" />
        </mxCell>
        <mxCell id="0IamSGhX4x1fuv4fyuVd-46" value="" style="group" vertex="1" connectable="0" parent="1">
          <mxGeometry x="912.5" y="236.75" width="55" height="33.25" as="geometry" />
        </mxCell>
        <mxCell id="0IamSGhX4x1fuv4fyuVd-47" value="" style="rounded=1;whiteSpace=wrap;html=1;" vertex="1" parent="0IamSGhX4x1fuv4fyuVd-46">
          <mxGeometry width="55" height="33.25" as="geometry" />
        </mxCell>
        <mxCell id="0IamSGhX4x1fuv4fyuVd-91" value="" style="sketch=0;outlineConnect=0;fontColor=#232F3E;gradientColor=none;fillColor=#222f3d;strokeColor=none;dashed=0;verticalLabelPosition=bottom;verticalAlign=top;align=center;html=1;fontSize=12;fontStyle=0;aspect=fixed;pointerEvents=1;shape=mxgraph.aws4.endpoint;" vertex="1" parent="0IamSGhX4x1fuv4fyuVd-46">
          <mxGeometry x="14.07" y="3" width="27.06" height="27.06" as="geometry" />
        </mxCell>
        <mxCell id="0IamSGhX4x1fuv4fyuVd-49" value="" style="endArrow=classic;html=1;rounded=0;exitX=0;exitY=1;exitDx=0;exitDy=0;" edge="1" parent="1" source="0IamSGhX4x1fuv4fyuVd-47">
          <mxGeometry width="50" height="50" relative="1" as="geometry">
            <mxPoint x="1192.5" y="321.62" as="sourcePoint" />
            <mxPoint x="888.1655181028189" y="341.78347699909796" as="targetPoint" />
          </mxGeometry>
        </mxCell>
        <mxCell id="0IamSGhX4x1fuv4fyuVd-50" value="" style="endArrow=classic;html=1;rounded=0;exitX=0.873;exitY=1.019;exitDx=0;exitDy=0;exitPerimeter=0;" edge="1" parent="1" source="0IamSGhX4x1fuv4fyuVd-47">
          <mxGeometry width="50" height="50" relative="1" as="geometry">
            <mxPoint x="1192.5" y="321.62" as="sourcePoint" />
            <mxPoint x="986.6272389011426" y="341.78347699909796" as="targetPoint" />
          </mxGeometry>
        </mxCell>
        <mxCell id="0IamSGhX4x1fuv4fyuVd-51" value="" style="endArrow=classic;html=1;rounded=0;exitX=0.5;exitY=1;exitDx=0;exitDy=0;" edge="1" parent="1" target="0IamSGhX4x1fuv4fyuVd-42">
          <mxGeometry width="50" height="50" relative="1" as="geometry">
            <mxPoint x="940" y="171.62" as="sourcePoint" />
            <mxPoint x="1242.5" y="271.62" as="targetPoint" />
          </mxGeometry>
        </mxCell>
        <mxCell id="0IamSGhX4x1fuv4fyuVd-52" value="API Gateway" style="text;html=1;strokeColor=none;fillColor=none;align=center;verticalAlign=middle;whiteSpace=wrap;rounded=0;" vertex="1" parent="1">
          <mxGeometry x="852.5" y="238.62" width="60" height="30" as="geometry" />
        </mxCell>
        <mxCell id="0IamSGhX4x1fuv4fyuVd-53" value="APIs" style="text;html=1;strokeColor=none;fillColor=none;align=center;verticalAlign=middle;whiteSpace=wrap;rounded=0;" vertex="1" parent="1">
          <mxGeometry x="910" y="332.43" width="60" height="30" as="geometry" />
        </mxCell>
        <mxCell id="0IamSGhX4x1fuv4fyuVd-54" value="Private Network" style="text;html=1;strokeColor=none;fillColor=none;align=center;verticalAlign=middle;whiteSpace=wrap;rounded=0;" vertex="1" parent="1">
          <mxGeometry x="891.5" y="398.62" width="90" height="30" as="geometry" />
        </mxCell>
        <mxCell id="0IamSGhX4x1fuv4fyuVd-60" value="" style="group" vertex="1" connectable="0" parent="1">
          <mxGeometry x="388.38" y="200" width="60" height="78" as="geometry" />
        </mxCell>
        <mxCell id="0IamSGhX4x1fuv4fyuVd-56" value="" style="sketch=0;outlineConnect=0;fontColor=#232F3E;gradientColor=none;fillColor=#232F3D;strokeColor=none;dashed=0;verticalLabelPosition=bottom;verticalAlign=top;align=center;html=1;fontSize=12;fontStyle=0;aspect=fixed;pointerEvents=1;shape=mxgraph.aws4.traditional_server;" vertex="1" parent="0IamSGhX4x1fuv4fyuVd-60">
          <mxGeometry width="45" height="78" as="geometry" />
        </mxCell>
        <mxCell id="0IamSGhX4x1fuv4fyuVd-57" value="" style="endArrow=classic;html=1;rounded=0;strokeWidth=2;endSize=6;" edge="1" parent="0IamSGhX4x1fuv4fyuVd-60">
          <mxGeometry width="50" height="50" relative="1" as="geometry">
            <mxPoint x="20" y="52" as="sourcePoint" />
            <mxPoint x="60" y="52" as="targetPoint" />
          </mxGeometry>
        </mxCell>
        <mxCell id="0IamSGhX4x1fuv4fyuVd-58" value="" style="endArrow=none;html=1;rounded=0;strokeWidth=2;startArrow=classic;startFill=1;endFill=0;" edge="1" parent="0IamSGhX4x1fuv4fyuVd-60">
          <mxGeometry width="50" height="50" relative="1" as="geometry">
            <mxPoint x="19" y="64" as="sourcePoint" />
            <mxPoint x="60" y="64" as="targetPoint" />
          </mxGeometry>
        </mxCell>
        <mxCell id="0IamSGhX4x1fuv4fyuVd-65" value="" style="rounded=1;whiteSpace=wrap;html=1;" vertex="1" parent="1">
          <mxGeometry x="556.5" y="85" width="223.5" height="250" as="geometry" />
        </mxCell>
        <mxCell id="0IamSGhX4x1fuv4fyuVd-72" value="Private Network" style="text;html=1;strokeColor=none;fillColor=none;align=center;verticalAlign=middle;whiteSpace=wrap;rounded=0;" vertex="1" parent="1">
          <mxGeometry x="635" y="305" width="90" height="30" as="geometry" />
        </mxCell>
        <mxCell id="0IamSGhX4x1fuv4fyuVd-73" value="" style="group" vertex="1" connectable="0" parent="1">
          <mxGeometry x="650" y="184" width="60" height="78" as="geometry" />
        </mxCell>
        <mxCell id="0IamSGhX4x1fuv4fyuVd-74" value="" style="sketch=0;outlineConnect=0;fontColor=#232F3E;gradientColor=none;fillColor=#232F3D;strokeColor=none;dashed=0;verticalLabelPosition=bottom;verticalAlign=top;align=center;html=1;fontSize=12;fontStyle=0;aspect=fixed;pointerEvents=1;shape=mxgraph.aws4.traditional_server;" vertex="1" parent="0IamSGhX4x1fuv4fyuVd-73">
          <mxGeometry width="45" height="78" as="geometry" />
        </mxCell>
        <mxCell id="0IamSGhX4x1fuv4fyuVd-75" value="" style="endArrow=classic;html=1;rounded=0;strokeWidth=2;endSize=6;" edge="1" parent="0IamSGhX4x1fuv4fyuVd-73">
          <mxGeometry width="50" height="50" relative="1" as="geometry">
            <mxPoint x="20" y="52" as="sourcePoint" />
            <mxPoint x="60" y="52" as="targetPoint" />
          </mxGeometry>
        </mxCell>
        <mxCell id="0IamSGhX4x1fuv4fyuVd-76" value="" style="endArrow=none;html=1;rounded=0;strokeWidth=2;startArrow=classic;startFill=1;endFill=0;" edge="1" parent="0IamSGhX4x1fuv4fyuVd-73">
          <mxGeometry width="50" height="50" relative="1" as="geometry">
            <mxPoint x="19" y="64" as="sourcePoint" />
            <mxPoint x="60" y="64" as="targetPoint" />
          </mxGeometry>
        </mxCell>
        <mxCell id="0IamSGhX4x1fuv4fyuVd-79" value="Forward Proxy" style="text;html=1;strokeColor=none;fillColor=none;align=center;verticalAlign=middle;whiteSpace=wrap;rounded=0;" vertex="1" parent="1">
          <mxGeometry x="630" y="160" width="89.5" height="30" as="geometry" />
        </mxCell>
        <mxCell id="0IamSGhX4x1fuv4fyuVd-80" value="Clients" style="text;html=1;strokeColor=none;fillColor=none;align=center;verticalAlign=middle;whiteSpace=wrap;rounded=0;" vertex="1" parent="1">
          <mxGeometry x="115" y="60" width="60" height="30" as="geometry" />
        </mxCell>
        <mxCell id="0IamSGhX4x1fuv4fyuVd-81" value="Clients" style="text;html=1;strokeColor=none;fillColor=none;align=center;verticalAlign=middle;whiteSpace=wrap;rounded=0;" vertex="1" parent="1">
          <mxGeometry x="380" y="60" width="60" height="30" as="geometry" />
        </mxCell>
        <mxCell id="0IamSGhX4x1fuv4fyuVd-82" value="Clients" style="text;html=1;strokeColor=none;fillColor=none;align=center;verticalAlign=middle;whiteSpace=wrap;rounded=0;" vertex="1" parent="1">
          <mxGeometry x="639.5" y="95" width="60" height="30" as="geometry" />
        </mxCell>
        <mxCell id="0IamSGhX4x1fuv4fyuVd-85" value="" style="endArrow=classic;html=1;rounded=0;exitX=1.046;exitY=1.02;exitDx=0;exitDy=0;exitPerimeter=0;" edge="1" parent="1" target="0IamSGhX4x1fuv4fyuVd-74">
          <mxGeometry width="50" height="50" relative="1" as="geometry">
            <mxPoint x="623.9949999999999" y="166" as="sourcePoint" />
            <mxPoint x="500" y="265" as="targetPoint" />
          </mxGeometry>
        </mxCell>
        <mxCell id="0IamSGhX4x1fuv4fyuVd-86" value="" style="endArrow=classic;html=1;rounded=0;exitX=0.25;exitY=1;exitDx=0;exitDy=0;" edge="1" parent="1" target="0IamSGhX4x1fuv4fyuVd-74">
          <mxGeometry width="50" height="50" relative="1" as="geometry">
            <mxPoint x="729.625" y="165" as="sourcePoint" />
            <mxPoint x="500" y="265" as="targetPoint" />
          </mxGeometry>
        </mxCell>
        <mxCell id="0IamSGhX4x1fuv4fyuVd-87" value="" style="ellipse;shape=cloud;whiteSpace=wrap;html=1;" vertex="1" parent="1">
          <mxGeometry x="616.5" y="367" width="120" height="80" as="geometry" />
        </mxCell>
        <mxCell id="0IamSGhX4x1fuv4fyuVd-88" value="" style="endArrow=classic;html=1;rounded=0;" edge="1" parent="1" target="0IamSGhX4x1fuv4fyuVd-87">
          <mxGeometry width="50" height="50" relative="1" as="geometry">
            <mxPoint x="677" y="265" as="sourcePoint" />
            <mxPoint x="500" y="265" as="targetPoint" />
          </mxGeometry>
        </mxCell>
        <mxCell id="0IamSGhX4x1fuv4fyuVd-89" value="Internet" style="text;html=1;strokeColor=none;fillColor=none;align=center;verticalAlign=middle;whiteSpace=wrap;rounded=0;" vertex="1" parent="1">
          <mxGeometry x="646.5" y="392" width="60" height="30" as="geometry" />
        </mxCell>
        <mxCell id="0IamSGhX4x1fuv4fyuVd-90" value="Clients" style="text;html=1;strokeColor=none;fillColor=none;align=center;verticalAlign=middle;whiteSpace=wrap;rounded=0;" vertex="1" parent="1">
          <mxGeometry x="906.5" y="91.62" width="60" height="30" as="geometry" />
        </mxCell>
        <mxCell id="0IamSGhX4x1fuv4fyuVd-98" value="" style="group" vertex="1" connectable="0" parent="1">
          <mxGeometry x="842.5" y="341.62" width="80" height="43" as="geometry" />
        </mxCell>
        <mxCell id="0IamSGhX4x1fuv4fyuVd-94" value="" style="html=1;verticalLabelPosition=bottom;align=center;labelBackgroundColor=#ffffff;verticalAlign=top;strokeWidth=2;strokeColor=#1A1A1A;shadow=0;dashed=0;shape=mxgraph.ios7.icons.cloud;" vertex="1" parent="0IamSGhX4x1fuv4fyuVd-98">
          <mxGeometry width="80" height="43" as="geometry" />
        </mxCell>
        <mxCell id="0IamSGhX4x1fuv4fyuVd-96" value="&amp;lt;/&amp;gt;" style="text;html=1;strokeColor=none;fillColor=none;align=center;verticalAlign=middle;whiteSpace=wrap;rounded=0;" vertex="1" parent="0IamSGhX4x1fuv4fyuVd-98">
          <mxGeometry x="50" y="23" width="30" height="20" as="geometry" />
        </mxCell>
        <mxCell id="0IamSGhX4x1fuv4fyuVd-97" value="API" style="text;html=1;strokeColor=none;fillColor=none;align=center;verticalAlign=middle;whiteSpace=wrap;rounded=0;" vertex="1" parent="0IamSGhX4x1fuv4fyuVd-98">
          <mxGeometry x="10" y="13" width="60" height="30" as="geometry" />
        </mxCell>
        <mxCell id="0IamSGhX4x1fuv4fyuVd-99" value="" style="group" vertex="1" connectable="0" parent="1">
          <mxGeometry x="960" y="341.62" width="80" height="43" as="geometry" />
        </mxCell>
        <mxCell id="0IamSGhX4x1fuv4fyuVd-100" value="" style="html=1;verticalLabelPosition=bottom;align=center;labelBackgroundColor=#ffffff;verticalAlign=top;strokeWidth=2;strokeColor=#1A1A1A;shadow=0;dashed=0;shape=mxgraph.ios7.icons.cloud;" vertex="1" parent="0IamSGhX4x1fuv4fyuVd-99">
          <mxGeometry width="80" height="43" as="geometry" />
        </mxCell>
        <mxCell id="0IamSGhX4x1fuv4fyuVd-101" value="&amp;lt;/&amp;gt;" style="text;html=1;strokeColor=none;fillColor=none;align=center;verticalAlign=middle;whiteSpace=wrap;rounded=0;" vertex="1" parent="0IamSGhX4x1fuv4fyuVd-99">
          <mxGeometry x="50" y="23" width="30" height="20" as="geometry" />
        </mxCell>
        <mxCell id="0IamSGhX4x1fuv4fyuVd-102" value="API" style="text;html=1;strokeColor=none;fillColor=none;align=center;verticalAlign=middle;whiteSpace=wrap;rounded=0;" vertex="1" parent="0IamSGhX4x1fuv4fyuVd-99">
          <mxGeometry x="10" y="13" width="60" height="30" as="geometry" />
        </mxCell>
        <mxCell id="0IamSGhX4x1fuv4fyuVd-106" value="" style="group" vertex="1" connectable="0" parent="1">
          <mxGeometry x="99" y="89.5" width="84.81" height="51" as="geometry" />
        </mxCell>
        <mxCell id="0IamSGhX4x1fuv4fyuVd-104" value="" style="sketch=0;outlineConnect=0;fontColor=#232F3E;gradientColor=none;fillColor=#232F3D;strokeColor=none;dashed=0;verticalLabelPosition=bottom;verticalAlign=top;align=center;html=1;fontSize=12;fontStyle=0;aspect=fixed;pointerEvents=1;shape=mxgraph.aws4.mobile_client;" vertex="1" parent="0IamSGhX4x1fuv4fyuVd-106">
          <mxGeometry x="58" width="26.81" height="51" as="geometry" />
        </mxCell>
        <mxCell id="0IamSGhX4x1fuv4fyuVd-105" value="" style="sketch=0;outlineConnect=0;fontColor=#232F3E;gradientColor=none;fillColor=#232F3D;strokeColor=none;dashed=0;verticalLabelPosition=bottom;verticalAlign=top;align=center;html=1;fontSize=12;fontStyle=0;aspect=fixed;pointerEvents=1;shape=mxgraph.aws4.client;" vertex="1" parent="0IamSGhX4x1fuv4fyuVd-106">
          <mxGeometry y="1" width="51.32" height="50" as="geometry" />
        </mxCell>
        <mxCell id="0IamSGhX4x1fuv4fyuVd-107" value="" style="group" vertex="1" connectable="0" parent="1">
          <mxGeometry x="364.1" y="85" width="84.81" height="51" as="geometry" />
        </mxCell>
        <mxCell id="0IamSGhX4x1fuv4fyuVd-108" value="" style="sketch=0;outlineConnect=0;fontColor=#232F3E;gradientColor=none;fillColor=#232F3D;strokeColor=none;dashed=0;verticalLabelPosition=bottom;verticalAlign=top;align=center;html=1;fontSize=12;fontStyle=0;aspect=fixed;pointerEvents=1;shape=mxgraph.aws4.mobile_client;" vertex="1" parent="0IamSGhX4x1fuv4fyuVd-107">
          <mxGeometry x="58" width="26.81" height="51" as="geometry" />
        </mxCell>
        <mxCell id="0IamSGhX4x1fuv4fyuVd-109" value="" style="sketch=0;outlineConnect=0;fontColor=#232F3E;gradientColor=none;fillColor=#232F3D;strokeColor=none;dashed=0;verticalLabelPosition=bottom;verticalAlign=top;align=center;html=1;fontSize=12;fontStyle=0;aspect=fixed;pointerEvents=1;shape=mxgraph.aws4.client;" vertex="1" parent="0IamSGhX4x1fuv4fyuVd-107">
          <mxGeometry y="1" width="51.32" height="50" as="geometry" />
        </mxCell>
        <mxCell id="0IamSGhX4x1fuv4fyuVd-110" value="" style="group" vertex="1" connectable="0" parent="1">
          <mxGeometry x="895" y="117" width="84.81" height="51" as="geometry" />
        </mxCell>
        <mxCell id="0IamSGhX4x1fuv4fyuVd-111" value="" style="sketch=0;outlineConnect=0;fontColor=#232F3E;gradientColor=none;fillColor=#232F3D;strokeColor=none;dashed=0;verticalLabelPosition=bottom;verticalAlign=top;align=center;html=1;fontSize=12;fontStyle=0;aspect=fixed;pointerEvents=1;shape=mxgraph.aws4.mobile_client;" vertex="1" parent="0IamSGhX4x1fuv4fyuVd-110">
          <mxGeometry x="58" width="26.81" height="51" as="geometry" />
        </mxCell>
        <mxCell id="0IamSGhX4x1fuv4fyuVd-112" value="" style="sketch=0;outlineConnect=0;fontColor=#232F3E;gradientColor=none;fillColor=#232F3D;strokeColor=none;dashed=0;verticalLabelPosition=bottom;verticalAlign=top;align=center;html=1;fontSize=12;fontStyle=0;aspect=fixed;pointerEvents=1;shape=mxgraph.aws4.client;" vertex="1" parent="0IamSGhX4x1fuv4fyuVd-110">
          <mxGeometry y="1" width="51.32" height="50" as="geometry" />
        </mxCell>
        <mxCell id="0IamSGhX4x1fuv4fyuVd-113" value="" style="group" vertex="1" connectable="0" parent="1">
          <mxGeometry x="562" y="110" width="84.81" height="51" as="geometry" />
        </mxCell>
        <mxCell id="0IamSGhX4x1fuv4fyuVd-114" value="" style="sketch=0;outlineConnect=0;fontColor=#232F3E;gradientColor=none;fillColor=#232F3D;strokeColor=none;dashed=0;verticalLabelPosition=bottom;verticalAlign=top;align=center;html=1;fontSize=12;fontStyle=0;aspect=fixed;pointerEvents=1;shape=mxgraph.aws4.mobile_client;" vertex="1" parent="0IamSGhX4x1fuv4fyuVd-113">
          <mxGeometry x="58" width="26.81" height="51" as="geometry" />
        </mxCell>
        <mxCell id="0IamSGhX4x1fuv4fyuVd-115" value="" style="sketch=0;outlineConnect=0;fontColor=#232F3E;gradientColor=none;fillColor=#232F3D;strokeColor=none;dashed=0;verticalLabelPosition=bottom;verticalAlign=top;align=center;html=1;fontSize=12;fontStyle=0;aspect=fixed;pointerEvents=1;shape=mxgraph.aws4.client;" vertex="1" parent="0IamSGhX4x1fuv4fyuVd-113">
          <mxGeometry y="1" width="51.32" height="50" as="geometry" />
        </mxCell>
        <mxCell id="0IamSGhX4x1fuv4fyuVd-116" value="" style="group" vertex="1" connectable="0" parent="1">
          <mxGeometry x="691" y="110" width="84.81" height="51" as="geometry" />
        </mxCell>
        <mxCell id="0IamSGhX4x1fuv4fyuVd-117" value="" style="sketch=0;outlineConnect=0;fontColor=#232F3E;gradientColor=none;fillColor=#232F3D;strokeColor=none;dashed=0;verticalLabelPosition=bottom;verticalAlign=top;align=center;html=1;fontSize=12;fontStyle=0;aspect=fixed;pointerEvents=1;shape=mxgraph.aws4.mobile_client;" vertex="1" parent="0IamSGhX4x1fuv4fyuVd-116">
          <mxGeometry x="58" width="26.81" height="51" as="geometry" />
        </mxCell>
        <mxCell id="0IamSGhX4x1fuv4fyuVd-118" value="" style="sketch=0;outlineConnect=0;fontColor=#232F3E;gradientColor=none;fillColor=#232F3D;strokeColor=none;dashed=0;verticalLabelPosition=bottom;verticalAlign=top;align=center;html=1;fontSize=12;fontStyle=0;aspect=fixed;pointerEvents=1;shape=mxgraph.aws4.client;" vertex="1" parent="0IamSGhX4x1fuv4fyuVd-116">
          <mxGeometry y="1" width="51.32" height="50" as="geometry" />
        </mxCell>
      </root>
    </mxGraphModel>
  </diagram>
</mxfile>
